<svg xmlns="http://www.w3.org/2000/svg" width="41.026" height="40" viewBox="0 0 41.026 40">
  <g id="file_type_ai_icon_130757" transform="translate(-2 -2.35)">
    <path id="Caminho_115" data-name="Caminho 115" d="M3.169,3.517H41.861V41.183H3.169Z" transform="translate(0 0)" fill="#1c0a00"/>
    <path id="Caminho_116" data-name="Caminho 116" d="M3.713,4.06H41.319V40.64H3.713ZM2,42.35H43.026v-40H2ZM28.872,16.606c0-.136.051-.205.205-.205h2.684c.136,0,.205.051.205.205V30.094c0,.136-.034.205-.205.205H29.114c-.171,0-.223-.085-.223-.223V16.606h-.018Zm-.188-3.88a1.744,1.744,0,0,1,3.487,0,1.634,1.634,0,0,1-1.777,1.744,1.612,1.612,0,0,1-1.707-1.744Zm-7.692,9.5c-.479-1.9-1.612-6.034-2.034-8.034h-.034c-.359,2-1.264,5.385-1.982,8.034ZM16.24,25l-1.351,5.128c-.034.136-.085.171-.256.171h-2.51c-.171,0-.205-.051-.171-.256l4.854-17a5.537,5.537,0,0,0,.171-1.418c0-.12.051-.171.136-.171H20.7c.12,0,.171.034.205.171l5.436,18.444c.034.136,0,.223-.136.223H23.37c-.136,0-.223-.034-.256-.147L21.711,25h-5.47Z" transform="translate(0 0)" fill="#ff7f18"/>
  </g>
</svg>
