<svg xmlns="http://www.w3.org/2000/svg" width="15" height="12.408" viewBox="0 0 15 12.408">
  <g id="arrow" transform="translate(15 12.408) rotate(180)">
    <g id="Grupo_6" data-name="Grupo 6" transform="translate(0 0)">
      <path id="Caminho_82" data-name="Caminho 82" d="M14.1,5.188a1.111,1.111,0,0,0-.186-.013H3.331l.231-.1a2.148,2.148,0,0,0,.606-.414L7.135,1.8A1.044,1.044,0,0,0,7.291.424,1.1,1.1,0,0,0,5.791.2a1.065,1.065,0,0,0-.11.089L.315,5.465a1.009,1.009,0,0,0,0,1.464h0l5.366,5.176a1.1,1.1,0,0,0,1.518,0,.981.981,0,0,0-.064-1.473L4.173,7.763a2.145,2.145,0,0,0-.537-.378l-.322-.14H13.854a1.1,1.1,0,0,0,1.132-.87A1.04,1.04,0,0,0,14.1,5.188Z" transform="translate(0 0)" fill="#fff"/>
    </g>
  </g>
</svg>
