<svg xmlns="http://www.w3.org/2000/svg" width="15" height="12.864" viewBox="0 0 15 12.864">
  <g id="arrow" transform="translate(15 44.706) rotate(180)">
    <g id="Grupo_8" data-name="Grupo 8" transform="translate(0 31.842)">
      <path id="Caminho_83" data-name="Caminho 83" d="M14.1,37.221a1.072,1.072,0,0,0-.186-.014H3.33l.231-.107a2.146,2.146,0,0,0,.606-.429L7.135,33.7a1.111,1.111,0,0,0,.156-1.422,1.073,1.073,0,0,0-1.61-.14L.315,37.508a1.073,1.073,0,0,0,0,1.518h0l5.366,5.366a1.073,1.073,0,0,0,1.61-.107,1.111,1.111,0,0,0-.156-1.422L4.173,39.89a2.147,2.147,0,0,0-.537-.392l-.322-.145H13.853a1.111,1.111,0,0,0,1.132-.9A1.073,1.073,0,0,0,14.1,37.221Z" transform="translate(0 -31.842)" fill="#11e096"/>
    </g>
  </g>
</svg>
