<svg xmlns="http://www.w3.org/2000/svg" width="110.635" height="110.687" viewBox="0 0 110.635 110.687">
  <g id="formas" transform="translate(428 1206)">
    <g id="Retângulo_68" data-name="Retângulo 68" transform="matrix(0.839, 0.545, -0.545, 0.839, -410.304, -1197.793)" fill="none" stroke="#707070" stroke-width="3" opacity="0.3">
      <rect width="15.877" height="17.463" rx="5" stroke="none"/>
      <rect x="1.5" y="1.5" width="12.877" height="14.463" rx="3.5" fill="none"/>
    </g>
    <g id="Elipse_9" data-name="Elipse 9" transform="translate(-379 -1147.5)" fill="none" stroke="#707070" stroke-width="3" opacity="0.3">
      <ellipse cx="7" cy="6.75" rx="7" ry="6.75" stroke="none"/>
      <ellipse cx="7" cy="6.75" rx="5.5" ry="5.25" fill="none"/>
    </g>
    <g id="Elipse_10" data-name="Elipse 10" transform="translate(-385 -1174.5)" fill="none" stroke="#707070" stroke-width="3" opacity="0.3">
      <circle cx="5.25" cy="5.25" r="5.25" stroke="none"/>
      <circle cx="5.25" cy="5.25" r="3.75" fill="none"/>
    </g>
    <g id="Retângulo_69" data-name="Retângulo 69" transform="translate(-418.5 -1160.5)" fill="none" stroke="#707070" stroke-width="3" opacity="0.3">
      <rect width="7.5" height="17.5" rx="2" stroke="none"/>
      <rect x="1.5" y="1.5" width="4.5" height="14.5" rx="0.5" fill="none"/>
    </g>
    <g id="Retângulo_70" data-name="Retângulo 70" transform="matrix(0.799, 0.602, -0.602, 0.799, -387.479, -1160.995)" fill="none" stroke="#707070" stroke-width="3" opacity="0.3">
      <rect width="7.5" height="17.5" rx="2" stroke="none"/>
      <rect x="1.5" y="1.5" width="4.5" height="14.5" rx="0.5" fill="none"/>
    </g>
    <g id="Polígono_1" data-name="Polígono 1" transform="translate(-372 -1198)" fill="none" opacity="0.3">
      <path d="M6.527,2.924a2,2,0,0,1,3.446,0l4.75,8.061A2,2,0,0,1,13,14H3.5a2,2,0,0,1-1.723-3.015Z" stroke="none"/>
      <path d="M 8.249990463256836 5.909085273742676 L 5.24998950958252 10.99998474121094 L 11.24997997283936 10.99998474121094 L 8.249990463256836 5.909085273742676 M 8.249988555908203 1.939390182495117 C 8.918121337890625 1.939390182495117 9.586254119873047 2.267595291137695 9.973068237304688 2.924004554748535 L 14.72305870056152 10.98459434509277 C 15.50871849060059 12.31785488128662 14.54749870300293 13.99998474121094 12.99997901916504 13.99998474121094 L 3.499998092651367 13.99998474121094 C 1.952468872070313 13.99998474121094 0.9912586212158203 12.31785488128662 1.776918411254883 10.98459434509277 L 6.526908874511719 2.924004554748535 C 6.913723945617676 2.267595291137695 7.581855773925781 1.939390182495117 8.249988555908203 1.939390182495117 Z" stroke="none" fill="#707070"/>
    </g>
    <g id="Polígono_2" data-name="Polígono 2" transform="matrix(0.883, 0.469, -0.469, 0.883, -359.248, -1172.554)" fill="none" opacity="0.3">
      <path d="M6.527,2.924a2,2,0,0,1,3.446,0l4.75,8.061A2,2,0,0,1,13,14H3.5a2,2,0,0,1-1.723-3.015Z" stroke="none"/>
      <path d="M 8.249990463256836 5.909085273742676 L 5.24998950958252 10.99998474121094 L 11.24997997283936 10.99998474121094 L 8.249990463256836 5.909085273742676 M 8.249988555908203 1.939390182495117 C 8.918121337890625 1.939390182495117 9.586254119873047 2.267595291137695 9.973068237304688 2.924004554748535 L 14.72305870056152 10.98459434509277 C 15.50871849060059 12.31785488128662 14.54749870300293 13.99998474121094 12.99997901916504 13.99998474121094 L 3.499998092651367 13.99998474121094 C 1.952468872070313 13.99998474121094 0.9912586212158203 12.31785488128662 1.776918411254883 10.98459434509277 L 6.526908874511719 2.924004554748535 C 6.913723945617676 2.267595291137695 7.581855773925781 1.939390182495117 8.249988555908203 1.939390182495117 Z" stroke="none" fill="#707070"/>
    </g>
    <g id="Polígono_3" data-name="Polígono 3" transform="translate(-406.5 -1134)" fill="none" opacity="0.3">
      <path d="M7.036.928a2,2,0,0,1,2.428,0l5.927,4.528a2,2,0,0,1,.7,2.18l-2.3,7.455a2,2,0,0,1-1.911,1.41H4.626a2,2,0,0,1-1.911-1.41L.412,7.635a2,2,0,0,1,.7-2.18Z" stroke="none"/>
      <path d="M 8.249991416931152 3.775226593017578 L 3.484100341796875 7.416042327880859 L 5.3641357421875 13.49997901916504 L 11.13584136962891 13.49997901916504 L 13.01587581634521 7.41603946685791 L 8.249991416931152 3.775226593017578 M 8.249988555908203 0.5168170928955078 C 8.677848815917969 0.5168170928955078 9.105709075927734 0.6537132263183594 9.464108467102051 0.9275093078613281 L 15.3913688659668 5.45552921295166 C 16.05742835998535 5.964348793029785 16.33555793762207 6.834519386291504 16.08808898925781 7.635318756103516 L 13.78432846069336 15.09045886993408 C 13.52536869049072 15.92847919464111 12.7505989074707 16.49997901916504 11.87347793579102 16.49997901916504 L 4.626498222351074 16.49997901916504 C 3.749378204345703 16.49997901916504 2.974608421325684 15.92847919464111 2.715648651123047 15.09045886993408 L 0.4118881225585938 7.635318756103516 C 0.1644191741943359 6.834519386291504 0.4425487518310547 5.964348793029785 1.108608245849609 5.45552921295166 L 7.035868644714355 0.9275093078613281 C 7.394268989562988 0.6537132263183594 7.822128295898438 0.5168170928955078 8.249988555908203 0.5168170928955078 Z" stroke="none" fill="#707070"/>
    </g>
    <g id="Polígono_4" data-name="Polígono 4" transform="matrix(0.921, -0.391, 0.391, 0.921, -358.068, -1137.121)" fill="none" opacity="0.3">
      <path d="M7.036.928a2,2,0,0,1,2.428,0l5.927,4.528a2,2,0,0,1,.7,2.18l-2.3,7.455a2,2,0,0,1-1.911,1.41H4.626a2,2,0,0,1-1.911-1.41L.412,7.635a2,2,0,0,1,.7-2.18Z" stroke="none"/>
      <path d="M 8.249991416931152 3.775226593017578 L 3.484100341796875 7.416042327880859 L 5.3641357421875 13.49997901916504 L 11.13584136962891 13.49997901916504 L 13.01587581634521 7.41603946685791 L 8.249991416931152 3.775226593017578 M 8.249988555908203 0.5168170928955078 C 8.677848815917969 0.5168170928955078 9.105709075927734 0.6537132263183594 9.464108467102051 0.9275093078613281 L 15.3913688659668 5.45552921295166 C 16.05742835998535 5.964348793029785 16.33555793762207 6.834519386291504 16.08808898925781 7.635318756103516 L 13.78432846069336 15.09045886993408 C 13.52536869049072 15.92847919464111 12.7505989074707 16.49997901916504 11.87347793579102 16.49997901916504 L 4.626498222351074 16.49997901916504 C 3.749378204345703 16.49997901916504 2.974608421325684 15.92847919464111 2.715648651123047 15.09045886993408 L 0.4118881225585938 7.635318756103516 C 0.1644191741943359 6.834519386291504 0.4425487518310547 5.964348793029785 1.108608245849609 5.45552921295166 L 7.035868644714355 0.9275093078613281 C 7.394268989562988 0.6537132263183594 7.822128295898438 0.5168170928955078 8.249988555908203 0.5168170928955078 Z" stroke="none" fill="#707070"/>
    </g>
    <g id="Retângulo_71" data-name="Retângulo 71" transform="matrix(0.891, -0.454, 0.454, 0.891, -339.439, -1180.322)" fill="none" stroke="#707070" stroke-width="3" opacity="0.3">
      <rect width="15.877" height="17.463" rx="2" stroke="none"/>
      <rect x="1.5" y="1.5" width="12.877" height="14.463" rx="0.5" fill="none"/>
    </g>
    <circle id="Elipse_11" data-name="Elipse 11" cx="5.25" cy="5.25" r="5.25" transform="translate(-372 -1120)" fill="#929292" opacity="0.3"/>
    <circle id="Elipse_12" data-name="Elipse 12" cx="5.25" cy="5.25" r="5.25" transform="translate(-338 -1156)" fill="#929292" opacity="0.3"/>
    <circle id="Elipse_13" data-name="Elipse 13" cx="5.25" cy="5.25" r="5.25" transform="translate(-393 -1206)" fill="#929292" opacity="0.3"/>
    <g id="Polígono_5" data-name="Polígono 5" transform="matrix(0.799, 0.602, -0.602, 0.799, -418.07, -1122.304)" fill="none" opacity="0.3">
      <path d="M11.139,0a2,2,0,0,1,1.789,1.106l3.125,6.25a2,2,0,0,1,0,1.789l-3.125,6.25A2,2,0,0,1,11.139,16.5H5.361a2,2,0,0,1-1.789-1.106L.447,9.144a2,2,0,0,1,0-1.789l3.125-6.25A2,2,0,0,1,5.361,0Z" stroke="none"/>
      <path d="M 5.979093551635742 2.999998092651367 L 3.354103088378906 8.249988555908203 L 5.979093551635742 13.49997901916504 L 10.52088356018066 13.49997901916504 L 13.14588356018066 8.249988555908203 L 10.52088356018066 2.999998092651367 L 5.979093551635742 2.999998092651367 M 5.361058235168457 -1.9073486328125e-06 L 11.13891792297363 -1.9073486328125e-06 C 11.89645862579346 -1.9073486328125e-06 12.58898830413818 0.428009033203125 12.92776870727539 1.105568885803223 L 16.05276870727539 7.355558395385742 C 16.33428764343262 7.918618202209473 16.33428764343262 8.581357955932617 16.05276870727539 9.144418716430664 L 12.92776870727539 15.39440822601318 C 12.58898830413818 16.07196807861328 11.89645862579346 16.49997901916504 11.13891792297363 16.49997901916504 L 5.361058235168457 16.49997901916504 C 4.603518486022949 16.49997901916504 3.910988807678223 16.07196807861328 3.572208404541016 15.39440822601318 L 0.4472179412841797 9.144418716430664 C 0.1656894683837891 8.581357955932617 0.1656894683837891 7.918618202209473 0.4472179412841797 7.355558395385742 L 3.572208404541016 1.105568885803223 C 3.910988807678223 0.428009033203125 4.603518486022949 -1.9073486328125e-06 5.361058235168457 -1.9073486328125e-06 Z" stroke="none" fill="#707070"/>
    </g>
    <g id="Polígono_6" data-name="Polígono 6" transform="translate(-400.395 -1107.437) rotate(-30)" fill="none" opacity="0.3">
      <path d="M6.527,2.924a2,2,0,0,1,3.446,0l4.75,8.061A2,2,0,0,1,13,14H3.5a2,2,0,0,1-1.723-3.015Z" stroke="none"/>
      <path d="M 8.249990463256836 5.909085273742676 L 5.24998950958252 10.99998474121094 L 11.24997997283936 10.99998474121094 L 8.249990463256836 5.909085273742676 M 8.249988555908203 1.939390182495117 C 8.918121337890625 1.939390182495117 9.586254119873047 2.267595291137695 9.973068237304688 2.924004554748535 L 14.72305870056152 10.98459434509277 C 15.50871849060059 12.31785488128662 14.54749870300293 13.99998474121094 12.99997901916504 13.99998474121094 L 3.499998092651367 13.99998474121094 C 1.952468872070313 13.99998474121094 0.9912586212158203 12.31785488128662 1.776918411254883 10.98459434509277 L 6.526908874511719 2.924004554748535 C 6.913723945617676 2.267595291137695 7.581855773925781 1.939390182495117 8.249988555908203 1.939390182495117 Z" stroke="none" fill="#707070"/>
    </g>
  </g>
</svg>
