<?xml version="1.0" encoding="utf-8"?>
<!-- Generator: Adobe Illustrator 23.0.1, SVG Export Plug-In . SVG Version: 6.00 Build 0)  -->
<svg version="1.1" id="Camada_1" xmlns="http://www.w3.org/2000/svg" xmlns:xlink="http://www.w3.org/1999/xlink" x="0px" y="0px"
	 viewBox="0 0 466.1 456.2" style="enable-background:new 0 0 466.1 456.2;" xml:space="preserve">
<style type="text/css">
	.st0{fill:#07AD72;}
	.st1{opacity:0.7;fill:#07AD72;enable-background:new    ;}
	.st2{fill:none;stroke:#263238;stroke-width:1.1;stroke-linecap:round;stroke-linejoin:round;stroke-dasharray:4.41;}
	.st3{fill:#92E3A9;}
	.st4{opacity:0.5;fill:#FFFFFF;enable-background:new    ;}
	.st5{fill:#FFFFFF;stroke:#263238;stroke-width:1.1;stroke-linecap:round;stroke-linejoin:round;}
	.st6{fill:#263238;}
	.st7{opacity:0.2;fill:#FFFFFF;enable-background:new    ;}
	.st8{fill:#07AD72;stroke:#263238;stroke-width:1.1;stroke-miterlimit:10;}
	.st9{fill:none;stroke:#263238;stroke-width:1.1;stroke-miterlimit:10;}
	.st10{fill:#92E3A9;stroke:#263238;stroke-width:1.1;stroke-miterlimit:10;}
	.st11{opacity:0.2;enable-background:new    ;}
	.st12{fill:#FFFFFF;stroke:#222221;stroke-width:1.1;stroke-miterlimit:10;}
	.st13{fill:#FFFFFF;}
	.st14{fill:none;stroke:#263238;stroke-width:1.1;stroke-linecap:round;stroke-linejoin:round;}
	.st15{fill:none;stroke:#263238;stroke-width:2.21;stroke-linecap:round;stroke-linejoin:round;}
	
		.st16{opacity:0.2;fill:none;stroke:#FFFFFF;stroke-width:1.1;stroke-linecap:round;stroke-linejoin:round;enable-background:new    ;}
	.st17{fill:none;stroke:#FFFFFF;stroke-width:1.1;stroke-linecap:round;stroke-linejoin:round;}
</style>
<g id="seta" transform="translate(0 -0.001)">
	<g id="Background_Simple" transform="translate(0 0.001)">
		<path id="Caminho_7" class="st0" d="M452.3,177c-51.7-88.6-192.1-57-220.8-100.1c-14.7-22.1-31.1-47.7-54.9-61
			c-22.7-12.7-49-17.2-71.9-15.5c-82,6-116.7,79.3-101,159.8c21,107.4,116.3,217.1,229.4,217.9c59.2,0.4,115.6-20.7,160-50.6l1-0.7
			C438.3,296.6,491.8,244.6,452.3,177z"/>
		<path id="Caminho_8" class="st1" d="M452.3,177c-51.7-88.6-192.1-57-220.8-100.1c-14.7-22.1-31.1-47.7-54.9-61
			c-22.7-12.7-49-17.2-71.9-15.5c-82,6-116.7,79.3-101,159.8c21,107.4,116.3,217.1,229.4,217.9c59.2,0.4,115.6-20.7,160-50.6l1-0.7
			C438.3,296.6,491.8,244.6,452.3,177z"/>
	</g>
	<g id="Lines" transform="translate(21.633 23.353)">
		<path id="Caminho_9" class="st2" d="M29,160.1h-5.8C10.4,160.1,0,170.5,0,183.3c0,0,0,0,0,0v127.7c0,12.9,10.4,23.3,23.3,23.3
			c0,0,0,0,0,0h78.9c12.9,0,23.3-10.4,23.3-23.3l0,0l0,0"/>
		<path id="Caminho_10" class="st2" d="M119,39.5V14.3C119,6.4,125.4,0,133.2,0c0,0,0,0,0,0h102.7c7.9,0,14.3,6.4,14.3,14.3l0,0"/>
	</g>
	<g id="Shadow" transform="translate(29.743 399.387)">
		<ellipse id="Elipse_3" class="st3" cx="203.3" cy="28.4" rx="203.3" ry="28.4"/>
		<ellipse id="Elipse_4" class="st4" cx="203.3" cy="28.4" rx="203.3" ry="28.4"/>
	</g>
	<g id="Window" transform="translate(41.398 73.169)">
		<path id="Caminho_11" class="st5" d="M383.3,23.6v191.1c0,13-10.6,23.6-23.6,23.6l0,0H23.6c-13,0-23.6-10.6-23.6-23.6V23.6
			c0-0.6,0-1.1,0.1-1.7C0.9,9.6,11.2,0,23.6,0h336.2c12.4,0,22.6,9.6,23.5,21.9C383.3,22.5,383.3,23,383.3,23.6z"/>
		<path id="Caminho_12" class="st6" d="M11.5,30.7H373v176.6c0,12.2-9.9,22.1-22.1,22.1c0,0,0,0,0,0H33.5
			c-12.2,0-22.1-9.9-22.1-22.1l0,0V30.7z"/>
		<path id="Caminho_13" class="st7" d="M373,30.7v176.6c0.1,12.1-9.7,22-21.8,22.1H33.3c-12.1-0.1-21.9-9.9-21.8-22.1V30.7H373z"/>
		<path id="Caminho_14" class="st8" d="M383.2,21.9H0.1C0.9,9.6,11.2,0,23.6,0h336.2C372.1,0,382.3,9.6,383.2,21.9z"/>
		<path id="Caminho_15" class="st6" d="M47.1,11c0,2.3-1.9,4.2-4.2,4.2s-4.2-1.9-4.2-4.2s1.9-4.2,4.2-4.2h0
			C45.3,6.8,47.1,8.7,47.1,11z"/>
		<path id="Caminho_16" class="st6" d="M64.8,11c0,2.3-1.9,4.2-4.2,4.2s-4.2-1.9-4.2-4.2s1.9-4.2,4.2-4.2h0
			C62.9,6.8,64.8,8.7,64.8,11z"/>
		<circle id="Elipse_5" class="st6" cx="78.3" cy="11" r="4.2"/>
		<path id="Caminho_17" class="st9" d="M373,30.7v176.6c0,12.2-9.9,22.1-22.1,22.1H33.5c-10.5,0-19.6-7.5-21.7-17.8l0,0
			c-0.3-1.4-0.4-2.8-0.4-4.2V30.7H373z"/>
		<path id="Caminho_18" class="st6" d="M372.7,58.1c-1.6-0.9-3.2-1.5-4.9-2l-2-8.9h-8.4l-2,8.9c-1.7,0.5-3.4,1.2-4.9,2l-7.6-4.9
			l-6,6l4.8,7.6c-0.9,1.6-1.6,3.2-2,4.9l-8.9,2V82l8.9,2c0.5,1.7,1.1,3.4,2,4.9l-4.9,7.7l6,6l7.7-4.9c1.5,0.9,3.2,1.6,4.9,2l2,8.9
			h8.4l2-8.9c1.7-0.5,3.4-1.2,4.9-2L373,98V57.8L372.7,58.1z M361.6,88.8c-6,0-10.9-4.9-10.9-10.9c0-6,4.9-10.9,10.9-10.9
			c6,0,10.9,4.9,10.9,10.9l0,0C372.5,83.9,367.6,88.8,361.6,88.8z"/>
		<path id="Caminho_19" class="st6" d="M220.8,66.6V48.8l-18.7-4.2c-1-3.6-2.4-7.1-4.2-10.4l2.3-3.6h-88.2l2.2,3.5
			c-1.8,3.3-3.3,6.7-4.2,10.4l-18.7,4.2v17.8l18.7,4.2c1,3.6,2.4,7.1,4.2,10.4l-10.3,16.1l12.6,12.6l16.1-10.3
			c3.3,1.8,6.8,3.2,10.4,4.2l4.1,18.7h17.8l4.2-18.7c3.6-1,7.1-2.4,10.3-4.2l16.1,10.3l12.6-12.6l-10.2-16.1
			c1.8-3.3,3.2-6.7,4.2-10.4L220.8,66.6z M156,80.7c-12.7,0-23-10.3-23-23s10.3-23,23-23s23,10.3,23,23S168.7,80.7,156,80.7
			L156,80.7z"/>
		<path id="Caminho_20" class="st6" d="M102.9,188.6l0.8-14.1L89,170.4c-0.7-2.9-1.7-5.7-3-8.4l8.8-12.4l-9.5-10.5l-13.2,7.5
			c-2.5-1.6-5.2-2.9-8.1-3.9l-2.6-15L47.5,127l-4.1,14.7c-2.9,0.7-5.7,1.7-8.4,3l-12.4-8.8l-10.5,9.5l7.5,13.2
			c-1.6,2.5-2.9,5.2-3.9,8l-4.2,0.7v19.1l3.1,0.9c0.6,2.9,1.7,5.7,3,8.4l-6.1,8.5l0.4,7.3l0,0l6.3,7l13.3-7.5
			c2.5,1.6,5.2,2.9,8.1,3.9l2.4,14.5l0,0L42,230l14.1,0.8l0.4-1.3l0,0l3.7-13.3c2.9-0.7,5.7-1.7,8.4-3l12.4,8.8l10.5-9.4l-7.4-13.3
			c1.6-2.5,2.9-5.2,3.8-8L102.9,188.6z M65.4,166.6c-6.7-7.5-18.3-8.1-25.8-1.4c-7.5,6.7-8.1,18.3-1.4,25.8
			c6.7,7.5,18.3,8.1,25.8,1.4c0,0,0,0,0,0C71.6,185.6,72.2,174.1,65.4,166.6z"/>
		<path id="Caminho_21" class="st6" d="M215.6,167.6c0.5-2.2,0.8-4.4,0.8-6.7l10.1-5.3l-2.8-10.3l-11.4,0.5
			c-1.2-1.9-2.5-3.7-4.1-5.3l3.4-11l-9.2-5.3l-7.7,8.5c-2.2-0.5-4.4-0.8-6.7-0.8l-5.3-10.1l-10.3,2.8L173,136
			c-1.9,1.2-3.7,2.5-5.3,4.1l-11-3.4l-5.3,9.2l8.5,7.7c-0.5,2.2-0.8,4.4-0.8,6.7l-10.2,5.3l2.8,10.3l11.5-0.5
			c1.1,1.9,2.5,3.7,4.1,5.3l-3.4,10.9l9.2,5.3l7.7-8.4c2.2,0.5,4.4,0.8,6.7,0.8l5.3,10.1l10.3-2.8l-0.4-9.8l-0.1-1.7
			c1.9-1.2,3.8-2.5,5.4-4.1l10.9,3.4l4.5-7.9l0.8-1.3L215.6,167.6z M191.4,173.8c-7.3,2-14.9-2.3-17-9.6c-2-7.3,2.3-14.9,9.6-17
			c7.3-2,14.9,2.3,17,9.6c0,0,0,0.1,0,0.1C203,164.3,198.7,171.8,191.4,173.8z"/>
		<path id="Caminho_22" class="st6" d="M333.1,185.7l2.3-14.1l-14.3-5.7c-0.3-3-1-6-2-8.8l10.3-11.5l-8.3-11.7l-14.2,6
			c-2.4-1.9-4.9-3.5-7.7-4.8l-0.8-15.4l-14.1-2.3l-5.8,14.3c-3,0.3-5.9,1-8.8,2.1l-11.5-10.3l-11.6,8.3l6,14.2
			c-1.7,2.1-3.1,4.3-4.3,6.7c-0.2,0.3-0.3,0.6-0.5,1l-15.4,0.9l-2.3,14.1l2.3,0.9l12,4.8c0.3,3,1,5.9,2,8.8l-10.3,11.5l8.3,11.7
			l14.2-6.1c2.4,1.9,4.9,3.5,7.7,4.7l0.8,15.3l14.1,2.3l5.8-14.1c3-0.3,6-1,8.8-2.1l11.5,10.3l11.7-8.3l-6-14.2
			c1.9-2.4,3.5-4.9,4.8-7.7L333.1,185.7z M293.6,185c-8.3,6-19.8,4.1-25.8-4.2c-6-8.3-4.1-19.8,4.2-25.8c8.3-6,19.8-4.1,25.8,4.2
			c0,0,0,0,0,0C303.8,167.5,301.9,179.1,293.6,185L293.6,185z"/>
	</g>
	<g id="Graphics" transform="translate(58.308 44.859)">
		<path id="Retângulo_46" class="st10" d="M13.1,109.5h112.6c7.2,0,13.1,5.9,13.1,13.1v155.3c0,7.2-5.9,13.1-13.1,13.1H13.1
			C5.9,291,0,285.1,0,277.9V122.6C0,115.3,5.9,109.5,13.1,109.5z"/>
		<path id="Retângulo_47" class="st11" d="M13.1,109.5h112.6c7.2,0,13.1,5.9,13.1,13.1v155.3c0,7.2-5.9,13.1-13.1,13.1H13.1
			C5.9,291,0,285.1,0,277.9V122.6C0,115.3,5.9,109.5,13.1,109.5z"/>
		<path id="Caminho_23" class="st5" d="M151.8,137.1v153.7c0,7.7-6.2,13.9-13.9,13.9c0,0,0,0,0,0h-111c-7.7,0-13.9-6.2-13.9-13.9
			c0,0,0,0,0,0V137.1c0-7.7,6.2-13.9,13.9-13.9l0,0h111C145.5,123.2,151.8,129.4,151.8,137.1C151.8,137.1,151.8,137.1,151.8,137.1z"
			/>
		<path id="Caminho_24" class="st8" d="M151.8,137.1v8.2H12.9v-8.2c0-7.7,6.2-13.9,13.9-13.9l0,0h111
			C145.5,123.2,151.8,129.4,151.8,137.1C151.8,137.1,151.8,137.1,151.8,137.1z"/>
		<rect id="Retângulo_48" x="26" y="154.9" class="st3" width="34.2" height="5.7"/>
		<rect id="Retângulo_49" x="26" y="206.2" class="st3" width="34.2" height="5.7"/>
		<rect id="Retângulo_50" x="26" y="252.8" class="st3" width="34.2" height="5.7"/>
		<rect id="Retângulo_51" x="26" y="169" class="st6" width="97" height="4.2"/>
		<rect id="Retângulo_52" x="26" y="177.1" class="st6" width="79.5" height="4.1"/>
		<rect id="Retângulo_53" x="26" y="185" class="st6" width="89.9" height="4.1"/>
		<rect id="Retângulo_54" x="26" y="192.9" class="st6" width="89.9" height="4.1"/>
		<rect id="Retângulo_55" x="26" y="215.6" class="st6" width="97" height="4.2"/>
		<rect id="Retângulo_56" x="26" y="223.7" class="st6" width="79.5" height="4.1"/>
		<rect id="Retângulo_57" x="26" y="231.6" class="st6" width="89.9" height="4.1"/>
		<rect id="Retângulo_58" x="26" y="266.8" class="st6" width="97" height="4.2"/>
		<rect id="Retângulo_59" x="26" y="274.8" class="st6" width="79.5" height="4.1"/>
		<rect id="Retângulo_60" x="26" y="282.7" class="st6" width="89.9" height="4.1"/>
		<path id="Caminho_25" class="st12" d="M308.2,16.6v62.1c0,9.2-7.4,16.6-16.6,16.6c0,0,0,0,0,0H148.6c-9.2,0-16.6-7.4-16.6-16.6
			l0,0V16.6C132,7.4,139.4,0,148.6,0h143.1C300.8,0,308.2,7.4,308.2,16.6C308.2,16.6,308.2,16.6,308.2,16.6L308.2,16.6z"/>
		<path id="Caminho_26" class="st8" d="M308.2,16.6V18H132v-1.4C132,7.4,139.4,0,148.6,0h143C300.8,0,308.2,7.4,308.2,16.6
			C308.2,16.6,308.2,16.6,308.2,16.6z"/>
		<path id="Caminho_27" class="st6" d="M157.9,12c-1,1-2.6,1-3.6,0c-1-1-1-2.6,0-3.6s2.6-1,3.6,0c0,0,0,0,0,0
			C158.9,9.4,158.9,11,157.9,12z"/>
		<path id="Caminho_28" class="st6" d="M169.7,12c-1,1-2.6,1-3.6,0c-1-1-1-2.6,0-3.6s2.6-1,3.6,0c0,0,0,0,0,0
			C170.7,9.4,170.7,11,169.7,12z"/>
		<path id="Caminho_29" class="st6" d="M181.5,12c-1,1-2.6,1-3.6,0c-1-1-1-2.6,0-3.6s2.6-1,3.6,0c0,0,0,0,0,0
			C182.5,9.4,182.5,11,181.5,12z"/>
		<rect id="Retângulo_61" x="143.2" y="29.4" class="st2" width="57.6" height="49.8"/>
		<rect id="Retângulo_62" x="209.7" y="29.4" class="st6" width="66.3" height="3.5"/>
		<rect id="Retângulo_63" x="209.7" y="36.7" class="st6" width="50.9" height="3.5"/>
		<rect id="Retângulo_64" x="209.7" y="43.9" class="st6" width="75.7" height="3.5"/>
		<rect id="Retângulo_65" x="209.7" y="51" class="st6" width="64.5" height="3.5"/>
	</g>
	<g id="Character" transform="translate(210.056 175.723)">
		<path id="Caminho_30" class="st0" d="M72.7,246.8c0,0-30.8,8.8-35,10.4c-3.9,1.4-14.5,5.1-22.5,3.9c-0.8-0.1-1.5-0.3-2.3-0.5
			c-8-2.4-11.7-4.6-12.7-9.7s3-8.8,6.8-11.2s24.8-4.9,24.8-4.9l5.1,1.5l0,0L72.7,246.8z"/>
		<path id="Caminho_31" class="st13" d="M15.2,261.1c-0.8-0.1-1.5-0.3-2.3-0.5c-8-2.4-11.7-4.6-12.7-9.7s3-8.8,6.8-11.2
			s24.8-4.9,24.8-4.9l5.1,1.5c-4.6,2.1-21.7,3.3-25.4,5.4S6,248,8.2,253.4C9.4,256.3,12.5,259.1,15.2,261.1z"/>
		<path id="Caminho_32" class="st14" d="M68.1,248.1c0,0-23.1,6-32.3,9.8s-26.7,5.5-32.9-2.4s-0.6-14.7,5.6-16.2s18.8-3.9,25.7-2.9"
			/>
		<path id="Caminho_33" class="st14" d="M15.6,260.7c0,0-11.8-6.5-7.9-15.5c2.9-6.7,18.6-5.2,26.3-8.9"/>
		<path id="Caminho_34" class="st0" d="M166.5,262.6c-0.3,3.2-1.4,6.2-4.6,8c-2.1,1.3-5.1,2-9.5,2c-10.8-0.1-31.1-7.9-31.1-7.9
			l-19-10.5l9.9-15.6l2.7-4.2l7,1.6c0,0,5.8,3.3,11.6,5.9s19.9,3.2,24.9,7.2S167,257.4,166.5,262.6z"/>
		<path id="Caminho_35" class="st13" d="M166.5,262.6c-0.3,3.2-1.4,6.2-4.6,8c0.9-3.1,0.7-6.5-0.5-9.5c-2.1-4.8-9-9-18.1-9.7
			s-16-5-19.7-6.8c-2.8-1.5-8.8-4.7-11.3-6l2.7-4.2l7,1.6c0,0,5.8,3.3,11.6,5.9s19.9,3.2,24.9,7.2S167,257.4,166.5,262.6z"/>
		<path id="Caminho_36" class="st14" d="M106.5,257.1c13.7,7.9,28.8,13.1,44.5,15.2c3.5,0.4,7.4,0.5,9.8-2.1
			c1.2-1.5,1.8-3.5,1.6-5.4c-0.4-4.9-4.5-8.7-9-10.7c-4.5-1.9-9.5-2.4-14.2-3.5c-4.8-1.1-9.4-2.8-13.7-5c-3.4-1.8-6.8-4-10.6-4.8
			s-8.3,0.2-10.3,3.5"/>
		<path id="Caminho_37" class="st14" d="M159.5,271.5c3.6-1.7,6.2-5.1,7-9c0.7-4.6-1.9-9.2-5.6-12s-8.3-4.2-12.9-5.1
			s-9.2-1.6-13.5-3.3c-6.7-2.6-13.2-7.7-20.2-5.9"/>
		<path id="Caminho_38" class="st3" d="M128,92.7L95.8,80.5l-0.4-0.1c0,0,0.1-0.8,0.2-2.1c0.2-2.6,0.3-6.8-0.9-8.2
			c-1.8-2.1-6.9-0.3-11.8-2.6s-14.1,1.8-14.1,1.8s-6.6-1.2-9.6,3.6c-1.5,3.9-1,9.6-1,9.6l-0.6,0.2C53.8,84,33,91.8,28.6,95
			c-4.9,3.5-10.3,38.9-12,49.3s-4.8,19.8-3.2,23.4s23.9,20.9,36.9,25.3s58.6,3.2,58.6,3.2s0.8-0.2,2.1-0.6
			c7.7-2.5,35.1-12.7,49.7-36.8C160.5,158.6,146.4,112.4,128,92.7z M41.1,152.3c-2.4,1.7-1.1,8.2-1.1,8.2l-4-3.5l10.1-24.8l4.3,19.1
			C50.4,151.2,43.5,150.6,41.1,152.3L41.1,152.3z M121.9,168.1c-1.1,0.6,3.2-11.4,1.2-14.1s-8.2-2.5-8.2-2.5l0.5-3.3l3.6-18.7
			l1.2-1.4c0,0,12.5,21.4,14.7,29C135,157.2,121.4,168.1,121.9,168.1z"/>
		<path id="Caminho_39" class="st13" d="M67.3,15.2L50.7,32.8c0,0-2.3,2-1.4,7.1s3,9.5,4.6,9.8c1.3,0.2,2.6,0.3,3.8,0.4
			c0,0,3.6,7.7,6.1,10.7c0,0,0.9,11.9,0.4,15.2c0,0,6,5.2,11.6,5.9S90.1,74,90.1,74l2.1-10.5c0,0,5.1-7.7,5.4-9.8s2.7-1.5,3.8-2.5
			s3.8-5.6,4.2-9.8s0.5-9.2-4.5-7.8c-4.3-1.2-1.6-10.3-1.6-10.3L92,16.5L67.3,15.2z"/>
		<path id="Caminho_40" class="st4" d="M95.8,80.5c-0.2,0.7-0.5,1.3-0.8,1.9c-2.7,5.2-14.7,15-14.7,15l-3.6-11.1l-2,11.1
			c-4-1.7-16.1-12.3-16.1-12.3s-0.4-1-0.9-2.5l0.6-0.2c0,0-0.5-5.7,1-9.6c2.9-4.8,9.6-3.6,9.6-3.6s9.2-4.1,14.1-1.8s10,0.5,11.8,2.6
			s0.7,10.3,0.7,10.3L95.8,80.5z"/>
		<path id="Caminho_41" class="st11" d="M128,92.7L95.8,80.5l-0.4-0.1c0,0,0.1-0.8,0.2-2.1L95,82.3l-4.8,6.5
			c5.1,1.9,10,4.1,14.9,6.5c4.7,2.5,7.4,7.7,6.8,13L106,159l-2.4,28.8l7.3,7.6c7.7-2.5,35.1-12.7,49.7-36.8
			C160.5,158.6,146.4,112.4,128,92.7z M121.9,168.1c-1.1,0.6,3.2-11.4,1.2-14.1s-8.2-2.5-8.2-2.5l0.5-3.3l3.6-18.7l1.2-1.4
			c0,0,12.5,21.4,14.7,29C135,157.1,121.4,168.1,121.9,168.1L121.9,168.1z"/>
		<path id="Caminho_42" class="st11" d="M52.6,154l-5-16.7c0,0-9-30.6-15.1-38.1l1.6,21.5c0,0-5.3,25.7-10.2,33.3s-5.9,9.6,0,9.6
			S44.3,175,44.3,175l-1.1-9.6L52.6,154z M40,160.5l-4-3.5l10.1-24.8l4.3,19.1c0,0-6.9-0.5-9.3,1.1S40,160.4,40,160.5L40,160.5z"/>
		<path id="Caminho_43" class="st14" d="M63.8,60.9c0,0,0.9,9,0,13.1"/>
		<path id="Caminho_44" class="st14" d="M91,72.8c0-2.9,0.3-5.8,1-8.6"/>
		<path id="Caminho_45" class="st14" d="M93.4,21.9c0,0,5.5,6.8,5.2,12s-0.7,11.3-0.6,17.3S88.4,69.9,83.4,71s-9.4,1.4-12.6-1.8
			s-6.4-7.7-10.6-13.4S57,37.4,57,37.4"/>
		<path id="Caminho_46" class="st14" d="M80.3,42.2c-0.3,1.9-0.5,3.8-0.4,5.7c-0.1,1.6,0.4,3.2,1.4,4.5c0.6,0.6,1.5,1.1,1.6,2
			c0,0.8-0.4,1.5-1.1,1.9c-0.7,0.3-1.3,0.7-2,1.2"/>
		<path id="Caminho_47" class="st14" d="M71.7,58c0,0,0.6,4.1,6.1,4.9"/>
		<path id="Caminho_48" class="st6" d="M72.2,45.3c0,1.2-0.5,2.1-1.1,2.1S70,46.5,70,45.3s0.5-2.1,1.1-2.1S72.2,44.1,72.2,45.3z"/>
		<path id="Caminho_49" class="st6" d="M88.5,45.8c0,1.2-0.5,2.1-1.1,2.1s-1.1-0.9-1.1-2.1s0.5-2.1,1.1-2.1S88.5,44.7,88.5,45.8z"/>
		<path id="Caminho_50" class="st15" d="M85.2,40.7c0,0,5.3-5.3,9.8,0.6"/>
		<path id="Caminho_51" class="st15" d="M74,40.8c0,0-3.4-3.8-8.6,0"/>
		<path id="Caminho_52" class="st6" d="M64.2,65.8c0,0,3.2,8.9,10.5,11.4s16.8-10.6,16.8-10.6L91,64.9c0,0-6.3,8.2-13.3,6.8
			S63.8,60.9,63.8,60.9L64.2,65.8z"/>
		<path id="Caminho_53" class="st14" d="M57.8,49.8c0,0-4.3,1.5-5.5-1.8s-5.1-12.2-1.6-15.1s6.2,3.9,6.2,3.9"/>
		<path id="Caminho_54" class="st14" d="M98.1,51.6c0,0,4,0.8,5.1-2.6s5.1-12.2,1.6-15.1s-6.2,3.9-6.2,3.9"/>
		<path id="Caminho_55" class="st6" d="M56.9,45.3c1.5-0.2,2.8-1,3.8-2.2c0.6-1.1,0.9-2.2,1.1-3.4c0.4-2.3,0.6-4.5,0.6-6.8
			c-0.1-0.9,0-1.8,0.2-2.7c0.3-0.9,0.8-1.7,1.4-2.4c1.5-1.8,3.3-3.2,4.7-5.1c1.6-1.7,2.3-4,2.1-6.4c6.6,5.5,15.4,7.7,23.9,6.2
			c7.6-1.5,14.9-8.1,14-16.5c-0.3-2.9-2.5-5.2-5.3-5.8c-3.7-0.9-7.1,1.1-10.5,2.3c-6.2,2.3-12.3-1.7-18.5-2.4
			C69-0.3,62.4,0.3,59.7,5.6c0,0-9.6,1.1-13.8,9s3.8,18.7,3.8,18.7s3.2-3.9,7.4,4L56.9,45.3z"/>
		<path id="Caminho_56" class="st6" d="M94.1,19.9c0,0-2.5,12.9,4,19.2c0,0,1.4-3.9,2.9-4.9c2.1-4.7,1.7-10.1-1.1-14.4
			C95,12.4,94.1,19.9,94.1,19.9z"/>
		<path id="Caminho_57" class="st16" d="M105.9,5.2c-1.2,3.6-3.9,6.4-7.4,7.7c-9,3.7-17.7-0.4-26.8-1.2c-7.4-0.7-15.5,6-16,13.5"/>
		<path id="Caminho_58" class="st16" d="M50.2,23.2c0.2-6.1,3.9-11.5,9.6-13.9"/>
		<path id="Caminho_59" class="st14" d="M61.8,72.8c4,4.1,8.7,7.4,14,9.6c0,0,10.8-3.1,16.3-10.6"/>
		<circle id="Elipse_6" class="st14" cx="68.8" cy="45.3" r="9.5"/>
		<circle id="Elipse_7" class="st14" cx="90.1" cy="45.3" r="9.5"/>
		<path id="Caminho_60" class="st14" d="M63.8,69.2c-1.9,0.5-3.6,1.8-4.6,3.6c-1.7,3-0.7,12.3-0.7,12.3s8.7,8.6,16.1,12.3l2.2-12.3
			l3.4,12.3c0,0,11.5-8.1,14.7-15c0,0,1.1-8,0-10.6c-0.5-1.5-1.9-2.5-3.4-2.5"/>
		<path id="Caminho_61" class="st14" d="M50.2,151.5c0,0-3.4-22.8-7.9-32.1"/>
		<path id="Caminho_62" class="st14" d="M32.5,99.2c2.6,3.8,5,7.7,7,11.8"/>
		<path id="Caminho_63" class="st14" d="M121.9,116.2c0.9-3.8,2.2-7.5,3.7-11.1"/>
		<path id="Caminho_64" class="st14" d="M114.9,151.5c0,0,2.5-15.6,5.4-28.5"/>
		<path id="Caminho_65" class="st14" d="M119.1,129.6c2.4-3.1,5.7-5.4,9.5-6.5"/>
		<path id="Caminho_66" class="st14" d="M95.4,80.3c0,0,19.8,7.9,32.6,12.4c0,0,15.7,14.8,32.6,66c0,0-15.4,26-44.8,34.3"/>
		<path id="Caminho_67" class="st14" d="M120.8,169l14.2-11.8c0,0,7.5-5.7,15.3-1.8"/>
		<path id="Caminho_68" class="st14" d="M120.3,128.2c0,0,11.7,17.3,14.7,29"/>
		<path id="Caminho_69" class="st14" d="M40.1,161.1l-4.1-4c0,0-6.2-1.1-13.1,3.6"/>
		<path id="Caminho_70" class="st14" d="M36,157.2c0,0,5.2-17,10.2-25.7"/>
		<path id="Caminho_71" class="st14" d="M58.3,82.4c0,0-28.5,10.7-31.3,13.8c-2.8,3.1-13.4,62.8-13.7,69.7
			c-0.2,6.1,21.9,19.8,32.9,25.6"/>
		<path id="Retângulo_66" class="st5" d="M128.5,39.9h33.2c3.6,0,6.5,2.9,6.5,6.5v19.8c0,3.6-2.9,6.5-6.5,6.5h-33.2
			c-3.6,0-6.5-2.9-6.5-6.5V46.4C121.9,42.8,124.9,39.9,128.5,39.9z"/>
		<path id="Caminho_72" class="st14" d="M136.9,49.8l-8.9,5.6l8.3,7.3"/>
		<path id="Caminho_73" class="st14" d="M153.1,63.2l8-6.8l-9.2-6.1"/>
		<line id="Linha_4" class="st14" x1="141.2" y1="67.4" x2="147.8" y2="46.8"/>
		<path id="Caminho_74" class="st6" d="M79.6,102.6c0,1-0.8,1.9-1.9,1.9s-1.9-0.8-1.9-1.9c0-1,0.8-1.9,1.9-1.9
			C78.7,100.7,79.6,101.5,79.6,102.6C79.6,102.6,79.6,102.6,79.6,102.6z"/>
		<path id="Caminho_75" class="st6" d="M112.5,202.6H47.7c-0.8,0-1.5-0.7-1.5-1.5l0,0l0,0c0-0.8,0.7-1.5,1.5-1.5c0,0,0,0,0,0h64.8
			c0.8,0,1.5,0.7,1.5,1.5l0,0l0,0C114,201.9,113.3,202.6,112.5,202.6L112.5,202.6z"/>
		<path id="Caminho_76" class="st5" d="M114.8,197.5l8.7-40.8c0.5-2.3-1-4.6-3.3-5.1c-0.3-0.1-0.6-0.1-0.9-0.1H43.5
			c-2.4,0-4.3,1.9-4.3,4.3c0,0.3,0,0.6,0.1,0.8l7.8,39.4c0.4,2,2.1,3.4,4.2,3.5l59.2,1.4C112.5,201,114.3,199.6,114.8,197.5
			L114.8,197.5z"/>
		<path id="Caminho_77" class="st6" d="M87.2,175c0,3.3-2.7,6-6.1,6c-3.3,0-6-2.7-6-6.1c0-3.3,2.7-6,6.1-6c1.6,0,3.1,0.6,4.3,1.8
			C86.5,171.9,87.2,173.4,87.2,175z"/>
		<line id="Linha_5" class="st14" x1="99" y1="155.4" x2="108" y2="155.4"/>
		<line id="Linha_6" class="st14" x1="56.1" y1="155.4" x2="90.2" y2="155.4"/>
		<path id="Caminho_78" class="st6" d="M114.9,240.8l-6.9,18.1c0,0-17.6-4.4-40.1-9.1c-23.6-4.8-48.2-11.1-61-33.5
			c-1.6-2.7-2.6-6-1.9-9c1.8-7.7,11.9-9.8,18.5-10.6c4.2-0.5,8.4-0.7,12.6-0.7c2.1,0,9.2-1.2,10.9,0.1c2.6,1.9,5.3,3.5,8.2,4.9
			c3.8,1.6,58.8-1.4,58.8-1.4c1-2.1,1.5-4.3,1.7-6.6c8.6-4.4,28.7-8.1,37.2-6.5c13.3,2.6,21.1,10.4,19.6,18.5
			S141.6,234.9,114.9,240.8z"/>
		<path id="Caminho_79" class="st17" d="M114.9,240.8c0,0-16.7-4.4-30.4-13.7s-24.4-20-43.4-17.7"/>
		<path id="Caminho_80" class="st17" d="M81.4,224.9c8.6-2.5,15-8.1,21.9-13.4c7.3-5.9,15.2-11,23.5-15.4"/>
		<line id="Linha_7" class="st14" x1="78.3" y1="46.8" x2="80.8" y2="46.8"/>
	</g>
</g>
</svg>
